<?xml version="1.0" encoding="UTF-8"?>
<svg id="Layer_2" data-name="Layer 2" xmlns="http://www.w3.org/2000/svg" viewBox="0 0 264 57.14">
  <path fill="currentColor" d="M26.7,56.79c-.19,0-.35-.11-.44-.28l-13.56-27.48c-.08-.16-.08-.35,0-.51L26.22.75c.17-.36.71-.36.89,0l13.54,27.76c.08.16.08.35,0,.51l-13.5,27.48c-.09.17-.26.28-.44.28h-.01ZM13.7,28.77l12.99,26.33,12.93-26.33L26.66,2.17l-12.96,26.6Z"/>
  <path fill="currentColor" d="M26.65,44.12c-.08,0-.16-.02-.24-.07L.7,29.25c-.16-.1-.27-.28-.27-.48s.1-.39.27-.48l25.77-14.91c.15-.09.32-.09.47,0l25.57,14.91c.16.1.26.28.26.48s-.1.38-.27.48l-25.63,14.81c-.07.04-.15.07-.24.07h.02ZM2,28.77l24.64,14.2,24.56-14.2-24.51-14.29L2,28.77Z"/>
  <path fill="currentColor" d="M35.49,38.76c-.13,0-.26-.05-.35-.16l-17.58-19.11c-.2-.22-.2-.55,0-.77.2-.22.51-.22.71,0l17.58,19.11c.2.22.2.55,0,.77-.1.11-.23.16-.35.16h0Z"/>
  <path fill="currentColor" d="M17.84,38.83c-.13,0-.26-.05-.35-.16-.2-.22-.2-.55,0-.77l17.62-19.2c.2-.22.51-.22.71,0,.2.22.2.55,0,.77l-17.62,19.2c-.1.11-.23.16-.35.16h-.01Z"/>
  <path fill="currentColor" d="M26.57,30.38c.94,0,1.7-.83,1.7-1.85s-.76-1.85-1.7-1.85-1.7.83-1.7,1.85.76,1.85,1.7,1.85Z"/>
  <path fill="currentColor" d="M1.45,30.36c.8,0,1.45-.71,1.45-1.58s-.65-1.58-1.45-1.58-1.45.71-1.45,1.58.65,1.58,1.45,1.58Z"/>
  <path fill="currentColor" d="M51.64,30.36c.8,0,1.45-.71,1.45-1.58s-.65-1.58-1.45-1.58-1.45.71-1.45,1.58.65,1.58,1.45,1.58Z"/>
  <path fill="currentColor" d="M26.61,57.14c.8,0,1.45-.71,1.45-1.58s-.65-1.58-1.45-1.58-1.45.71-1.45,1.58.65,1.58,1.45,1.58Z"/>
  <path fill="currentColor" d="M26.61,3.15c.8,0,1.45-.71,1.45-1.58s-.65-1.58-1.45-1.58-1.45.71-1.45,1.58.65,1.58,1.45,1.58Z"/>
  <path fill="currentColor" d="M18.01,21.78c.71,0,1.37-.29,1.86-.84.5-.54.77-1.26.78-2.02,0-.77-.28-1.5-.78-2.05-1-1.1-2.75-1.1-3.75,0-.5.54-.77,1.26-.77,2.03s.28,1.5.78,2.03c.5.55,1.17.85,1.88.85Z"/>
  <path fill="currentColor" d="M98.97,42.81v2.07h-9.71v-2.07c0-.47.22-.77.65-.89l1.98-.6-2.7-7.59h-14.93l-2.7,7.59,1.98.6c.43.12.65.42.65.89v2.07h-9.69v-2.07c0-.47.22-.76.63-.87l1.93-.63,12.54-34.08h4.28l12.52,34.08,1.93.63c.42.1.63.39.63.87h.01ZM87.88,30.04l-5.13-14.44c-.35-.94-.7-2.12-1.04-3.54-.39,1.55-.72,2.73-1.03,3.57l-5.15,14.43h12.34Z"/>
  <path fill="currentColor" d="M130.76,44.89h-20.39v-1.9c0-.39.25-.73.62-.81s2.32-.5,2.32-.5v-25.2s-1.95-.42-2.32-.5c-.36-.08-.62-.42-.62-.81v-1.9h9.79v1.9c0,.39-.26.73-.61.81-.35.08-2.24.49-2.3.5v24.82h10.49c.1-1.26.18-2.36.22-2.53.09-.43.43-.75.85-.75h1.97v6.89h-.01Z"/>
  <path fill="currentColor" d="M165.25,13.24v7h-1.97c-.47,0-.74-.16-.8-.46-.05-.3-.17-1.29-.35-2.94h-6.84v24.82s.18.04.51.1c1.04.22,1.71.37,2,.43.29.07.43.33.43.79v1.9h-9.81v-1.9c0-.46.23-.73.68-.84.45-.1,1.21-.26,2.24-.49v-24.82h-6.86c-.19,1.67-.31,2.65-.36,2.95-.05.3-.31.45-.77.45h-1.98v-7h23.87Z"/>
  <path fill="currentColor" d="M202.68,43.15v1.74h-8.35v-1.74c0-.39.18-.64.55-.75l1.67-.51-2.28-6.39h-12.54l-2.28,6.39,1.66.51c.36.1.55.35.55.75v1.74h-8.35v-1.74c0-.39.18-.64.53-.73l1.63-.52,10.54-28.63h3.99l10.52,28.63,1.63.52c.36.09.53.33.53.73h-.01ZM193.17,32.42l-4.31-12.15c-.3-.8-.59-1.78-.87-2.98-.33,1.3-.62,2.3-.86,3l-4.33,12.12h10.36Z"/>
  <path fill="currentColor" d="M221.88,16.47v25.2c1.32.28,2.13.46,2.46.52.33.07.48.34.48.8v1.9h-9.81v-1.9c0-.46.21-.72.62-.81l2.32-.51v-25.2c-1.3-.28-2.11-.46-2.44-.52-.33-.08-.48-.34-.48-.8v-1.9h9.81v1.9c0,.46-.21.73-.63.81l-2.32.51h-.01Z"/>
  <path fill="currentColor" d="M264,42.98v1.9h-4.22c-.71,0-1.24-.3-1.58-.9l-7.55-11.31c-.23-.35-.48-.6-.76-.76-.26-.16-.67-.24-1.22-.24h-2.59v9.98s1.95.42,2.3.5c.36.08.61.42.61.81v1.9h-9.78v-1.9c0-.39.25-.73.62-.81s2.32-.5,2.32-.5v-25.2s-1.95-.42-2.32-.5-.62-.42-.62-.81v-1.9h10.76c1.85,0,3.44.2,4.78.6,1.34.41,2.45,1,3.32,1.76.87.76,1.52,1.69,1.94,2.77.41,1.08.63,2.3.63,3.63,0,1.11-.16,2.16-.48,3.13-.33.97-.8,1.85-1.41,2.62-.61.77-1.36,1.43-2.26,1.98-.88.54-1.89.96-3.01,1.23.48.31.92.76,1.3,1.35l6.32,9.35c.25.05,1.94.42,2.28.5.36.08.62.42.62.81h.01ZM252.85,28.12c.87-.3,1.6-.72,2.2-1.29.59-.55,1.04-1.21,1.33-1.98.3-.76.45-1.61.45-2.54,0-1.89-.57-3.31-1.72-4.26-1.15-.96-2.85-1.44-5.1-1.44h-3.91v11.95h3.73c1.15,0,2.16-.14,3.03-.45h.01Z"/>
</svg>