<?xml version="1.0" encoding="UTF-8"?>
<svg id="Layer_2" data-name="Layer 2" xmlns="http://www.w3.org/2000/svg" viewBox="0 0 84.11 90.53">
  <defs>
    <style>
      .cls-1 {
        fill: #2f446d;
      }
    </style>
  </defs>
  <g id="Layer_1-2" data-name="Layer 1">
    <g>
      <path class="cls-1" d="M42.3,89.98c-.3,0-.55-.17-.7-.45l-21.48-43.54c-.13-.26-.13-.55,0-.81L41.54,1.19c.27-.57,1.12-.57,1.41,0l21.45,43.98c.13.26.13.55,0,.81l-21.39,43.54c-.14.28-.41.45-.7.45l-.02.02ZM21.7,45.58l20.58,41.71,20.48-41.71L42.24,3.44l-20.53,42.14Z"/>
      <path class="cls-1" d="M42.22,69.91c-.13,0-.25-.03-.38-.1L1.11,46.34c-.25-.15-.43-.45-.43-.76s.16-.62.43-.76l40.83-23.62c.24-.14.51-.14.74,0l40.51,23.62c.25.15.41.45.41.76s-.16.6-.43.76l-40.61,23.46c-.11.07-.24.1-.38.1h.03ZM3.17,45.58l39.04,22.5,38.91-22.5-38.83-22.64L3.17,45.58Z"/>
      <path class="cls-1" d="M56.23,61.4c-.21,0-.41-.09-.55-.26l-27.85-30.28c-.32-.34-.32-.88,0-1.22.32-.34.81-.34,1.12,0l27.85,30.28c.32.34.32.88,0,1.22-.16.17-.36.26-.55.26h-.02Z"/>
      <path class="cls-1" d="M28.26,61.52c-.21,0-.41-.09-.55-.26-.32-.34-.32-.88,0-1.22l27.91-30.42c.32-.34.81-.34,1.12,0,.32.34.32.88,0,1.22l-27.91,30.42c-.16.17-.36.26-.55.26h-.02Z"/>
      <path class="cls-1" d="M42.1,48.13c1.49,0,2.69-1.31,2.69-2.93s-1.2-2.93-2.69-2.93-2.69,1.31-2.69,2.93,1.2,2.93,2.69,2.93Z"/>
      <path class="cls-1" d="M2.3,48.1c1.27,0,2.3-1.12,2.3-2.5s-1.03-2.5-2.3-2.5-2.3,1.12-2.3,2.5,1.03,2.5,2.3,2.5Z"/>
      <path class="cls-1" d="M81.81,48.1c1.27,0,2.3-1.12,2.3-2.5s-1.03-2.5-2.3-2.5-2.3,1.12-2.3,2.5,1.03,2.5,2.3,2.5Z"/>
      <path class="cls-1" d="M42.15,90.53c1.27,0,2.3-1.12,2.3-2.5s-1.03-2.5-2.3-2.5-2.3,1.12-2.3,2.5,1.03,2.5,2.3,2.5Z"/>
      <path class="cls-1" d="M42.15,4.99c1.27,0,2.3-1.12,2.3-2.5s-1.03-2.5-2.3-2.5-2.3,1.12-2.3,2.5,1.03,2.5,2.3,2.5Z"/>
      <path class="cls-1" d="M28.53,34.52c1.12,0,2.17-.46,2.94-1.33.79-.86,1.22-2,1.23-3.2,0-1.22-.44-2.38-1.23-3.25-1.58-1.74-4.35-1.74-5.94,0-.79.86-1.22,2-1.22,3.22s.44,2.38,1.23,3.22c.79.88,1.85,1.34,2.98,1.34Z"/>
    </g>
  </g>
</svg>