<?xml version="1.0" encoding="UTF-8"?>
<svg id="Layer_2" data-name="Layer 2" xmlns="http://www.w3.org/2000/svg" viewBox="0 0 185 166.16">
  <defs>
    <style>
      .cls-1 {
        fill: #122866;
      }
    </style>
  </defs>
  <g id="Layer_1-2" data-name="Layer 1">
    <path class="cls-1" d="M185,32.47c0-2.49-2.01-4.5-4.5-4.5h-53.49v-2.59c0-13.99-11.39-25.38-25.39-25.38h-18.24c-14,0-25.39,11.38-25.39,25.38v2.59H4.5c-2.49,0-4.5,2.01-4.5,4.5v24.42c0,6.87,1.51,13.39,4.19,19.26,0,.01,0,.03,0,.04v85.47c0,2.49,2.01,4.5,4.5,4.5h167.63c2.49,0,4.5-2.01,4.5-4.5v-85.47s0-.03,0-.04c2.68-5.88,4.19-12.4,4.19-19.26v-24.42ZM66.99,25.38c0-9.03,7.35-16.38,16.39-16.38h18.24c9.04,0,16.39,7.35,16.39,16.38v2.59h-51.02v-2.59ZM171.82,157.16H13.18v-67.85c8.48,8.74,20.34,14.18,33.45,14.18h18.63c-.07.5-.12,1.01-.12,1.53v15.23c0,5.81,4.73,10.54,10.53,10.54h33.65c5.81,0,10.54-4.73,10.54-10.54v-15.23c0-.52-.05-1.03-.12-1.53h18.63c13.11,0,24.97-5.44,33.45-14.18v67.85ZM74.14,120.25v-15.23c0-.85.69-1.53,1.53-1.53h33.65c.85,0,1.54.69,1.54,1.53v15.23c0,.85-.69,1.54-1.54,1.54h-33.65c-.85,0-1.53-.69-1.53-1.54ZM176,56.88c0,20.74-16.88,37.61-37.63,37.61H46.63c-20.75,0-37.63-16.87-37.63-37.61v-19.92h167v19.92Z"/>
  </g>
</svg>