<?xml version="1.0" encoding="UTF-8"?>
<svg id="Layer_2" data-name="Layer 2" xmlns="http://www.w3.org/2000/svg" viewBox="0 0 179.88 134.96">
  <defs>
    <style>
      .cls-1 {
        fill: #122866;
      }
    </style>
  </defs>
  <g id="Layer_1-2" data-name="Layer 1">
    <path class="cls-1" d="M179.02,7.82c-1.81-4.57-6.26-7.82-11.47-7.82H12.34C5.54,0,0,5.54,0,12.34v110.27c0,6.81,5.54,12.34,12.34,12.34h155.2c5.21,0,9.66-3.25,11.47-7.82.54-.78.87-1.72.87-2.74V10.56c0-1.02-.33-1.96-.87-2.74ZM9.6,12.34c0-1.51,1.23-2.74,2.74-2.74h155.2c1.51,0,2.74,1.23,2.74,2.74v28.68l-80.34,51.46L9.6,41.03V12.34ZM167.54,125.36H12.34c-1.51,0-2.74-1.23-2.74-2.74V53.04l77.18,49.44c.88.76,2,1.19,3.16,1.19s2.29-.43,3.17-1.19l77.17-49.44v69.57c0,1.51-1.23,2.74-2.74,2.74Z"/>
  </g>
</svg>