<?xml version="1.0" encoding="UTF-8"?>
<svg id="Layer_2" data-name="Layer 2" xmlns="http://www.w3.org/2000/svg" viewBox="0 0 123.01 158.72">
  <defs>
    <style>
      .cls-1 {
        fill: #122866;
      }
    </style>
  </defs>
  <g id="Layer_1-2" data-name="Layer 1">
    <g>
      <path class="cls-1" d="M61.51,0c-16.45,0-31.96,6.55-43.69,18.45C6.1,30.34-.23,45.96,0,62.41c.2,14.1,5.3,27.8,14.36,38.6l38.85,53.49c1.92,2.65,5.02,4.23,8.29,4.23s6.37-1.58,8.29-4.22l38.85-53.5c9.26-11.04,14.36-25.06,14.36-39.5C123.01,27.59,95.42,0,61.51,0ZM62.52,149.21c-.32.45-.77.51-1.01.51s-.68-.07-1.01-.51l-38.94-53.62-.2-.26c-7.79-9.23-12.17-20.96-12.35-33.05-.2-14.02,5.21-27.35,15.23-37.51,10.02-10.17,23.26-15.76,37.28-15.76,28.95,0,52.5,23.55,52.5,52.5,0,12.37-4.39,24.38-12.35,33.82l-39.15,53.89Z"/>
      <path class="cls-1" d="M61.51,41.03c-12.68,0-23,10.32-23,23s10.32,23,23,23,23-10.32,23-23-10.32-23-23-23ZM61.51,78.03c-7.72,0-14-6.28-14-14s6.28-14,14-14,14,6.28,14,14-6.28,14-14,14Z"/>
    </g>
  </g>
</svg>