<?xml version="1.0" encoding="UTF-8"?>
<svg id="Layer_2" data-name="Layer 2" xmlns="http://www.w3.org/2000/svg" viewBox="0 0 153.81 151.87">
  <defs>
    <style>
      .cls-1 {
        fill: #122866;
      }
    </style>
  </defs>
  <g id="Layer_1-2" data-name="Layer 1">
    <path class="cls-1" d="M133.06,151.87c-1.93,0-3.82-.38-5.35-.69-.65-.13-1.33-.27-2.03-.39C56.49,138.64,11.93,92.74.2,21.54-1.05,13.93,3.56,6.51,10.94,4.28l.4-.12L44.98.5c7.69-2.08,14.92,2.43,18.95,11.86,1.43,3.36,2.57,5.78,3.67,8.11,1.48,3.15,2.88,6.13,4.78,10.91,2.25,5.64.89,12.09-3.46,16.44l-8.6,8.6c-1.2,1.2-1.87,2.81-1.87,4.51,0,1.68.65,3.27,1.83,4.47l28.91,27.28c1.2,1.2,2.8,1.87,4.51,1.87h0c1.7,0,3.3-.66,4.51-1.87l.5-.43,8.41-6.26c4.2-4,10.44-5.29,16.01-3.28,4.37,1.58,7.16,3.33,10.1,5.18,2.35,1.48,4.78,3.01,8.52,4.81,9.81,4.72,13.93,11.92,11.3,19.74l-11.07,32.92c-1.77,5.27-5.4,6.53-8.9,6.53ZM13.19,13.01c-2.86,1.04-4.61,4.02-4.11,7.06,5.5,33.4,18.4,60.85,38.34,81.59,20.16,20.96,47.01,34.5,79.81,40.26.78.14,1.53.29,2.25.43,1.22.25,3,.61,3.76.55.05-.09.11-.24.18-.44l11.07-32.92c1.06-3.17-1.18-6.11-6.67-8.76-4.19-2.02-6.96-3.76-9.4-5.3-2.74-1.72-4.91-3.09-8.37-4.34-2.45-.89-5.07-.34-6.84,1.43l-.5.43-8.4,6.25c-2.87,2.75-6.63,4.26-10.62,4.26h0c-4.08,0-7.92-1.58-10.82-4.45l-28.92-27.29c-2.9-2.9-4.5-6.77-4.5-10.87,0-4.11,1.6-7.97,4.5-10.87l8.6-8.6c1.8-1.8,2.37-4.45,1.46-6.74-1.8-4.53-3.15-7.39-4.57-10.41-1.13-2.41-2.3-4.9-3.8-8.4-1.3-3.05-4.14-7.97-8.5-6.65l-.4.12-33.55,3.65Z"/>
  </g>
</svg>